<?xml version="1.0" encoding="utf-8"?>
<!-- Generator: Adobe Illustrator 14.0.0, SVG Export Plug-In . SVG Version: 6.00 Build 43363)  -->
<!DOCTYPE svg PUBLIC "-//W3C//DTD SVG 1.1//EN" "http://www.w3.org/Graphics/SVG/1.1/DTD/svg11.dtd">
<svg version="1.1" id="Capa_1" xmlns="http://www.w3.org/2000/svg" xmlns:xlink="http://www.w3.org/1999/xlink" x="0px" y="0px"
	 width="800px" height="600px" viewBox="0 0 800 600" enable-background="new 0 0 800 600" xml:space="preserve">
<path fill="#FFFFFF" d="M400,0C234.317,0,100,134.314,100,300c0,165.687,134.316,300,300,300c165.683,0,300-134.313,300-300
	C700,134.314,565.683,0,400,0z M503.688,315.902l-150,93.751c-3.035,1.895-6.486,2.847-9.938,2.847
	c-3.127,0-6.258-0.777-9.092-2.353c-5.96-3.305-9.658-9.576-9.658-16.397v-187.5c0-6.82,3.698-13.092,9.658-16.396
	c5.96-3.323,13.248-3.122,19.029,0.494l150,93.75c5.479,3.434,8.813,9.439,8.813,15.902
	C512.5,306.464,509.167,312.47,503.688,315.902z"/>
</svg>
