<?xml version="1.0" encoding="iso-8859-1"?>
<!-- Generator: Adobe Illustrator 19.0.0, SVG Export Plug-In . SVG Version: 6.00 Build 0)  -->
<svg version="1.1" id="Capa_1" xmlns="http://www.w3.org/2000/svg" xmlns:xlink="http://www.w3.org/1999/xlink" x="0px" y="0px"
	 viewBox="0 0 511 511" style="enable-background:new 0 0 511 511;" xml:space="preserve">
<path d="M495.5,16h-176c-8.547,0-15.5,6.953-15.5,15.5V48h-9V23.5C295,10.542,284.458,0,271.5,0h-32C226.542,0,216,10.542,216,23.5
	V48h-9V31.5c0-8.547-6.953-15.5-15.5-15.5h-176C6.953,16,0,22.953,0,31.5v48C0,88.047,6.953,95,15.5,95h176
	c8.547,0,15.5-6.953,15.5-15.5V63h9v48.5c0,4.142,3.358,7.5,7.5,7.5h8.5v17h-5.185c-4.141,0-8.033,1.612-10.96,4.54l-19.316,19.315
	c-2.927,2.928-4.539,6.82-4.539,10.959v100.683v0.001c0,0.001,0,0.001,0,0.001c0,0.292,0.021,0.578,0.053,0.861
	c0.008,0.066,0.021,0.13,0.03,0.195c0.032,0.226,0.073,0.449,0.125,0.669c0.007,0.03,0.01,0.061,0.017,0.091l8,32.003
	c0.834,3.339,3.834,5.681,7.276,5.681H232v15.284l-14.793,44.381c-0.801,2.401-1.207,4.901-1.207,7.432V432h-9v-16.5
	c0-8.547-6.953-15.5-15.5-15.5h-128c-8.547,0-15.5,6.953-15.5,15.5v48c0,8.547,6.953,15.5,15.5,15.5h128
	c8.547,0,15.5-6.953,15.5-15.5V447h9v48.5c0,8.547,6.953,15.5,15.5,15.5h48c8.547,0,15.5-6.953,15.5-15.5V447h9v16.5
	c0,8.547,6.953,15.5,15.5,15.5h128c8.547,0,15.5-6.953,15.5-15.5v-48c0-8.547-6.953-15.5-15.5-15.5h-128
	c-8.547,0-15.5,6.953-15.5,15.5V432h-9v-53.904c0-2.532-0.406-5.032-1.206-7.432l0,0.001L279,326.281V311h24.5
	c3.441,0,6.441-2.342,7.276-5.681l8-32.003c0.008-0.03,0.01-0.061,0.017-0.092c0.052-0.219,0.092-0.441,0.124-0.667
	c0.009-0.066,0.022-0.131,0.03-0.197c0.032-0.283,0.053-0.569,0.053-0.86c0,0,0-0.001,0-0.002v-0.001V170.814
	c0-4.14-1.612-8.033-4.54-10.961l-19.317-19.315c-2.928-2.927-6.819-4.539-10.959-4.539H279v-16.5c0-0.169-0.014-0.334-0.025-0.5
	h8.525c4.142,0,7.5-3.358,7.5-7.5V63h9v16.5c0,8.547,6.953,15.5,15.5,15.5h176c8.547,0,15.5-6.953,15.5-15.5v-48
	C511,22.953,504.047,16,495.5,16z M192,31.5V48h-33V31h32.5C191.776,31,192,31.224,192,31.5z M96,63v17H63V63H96z M63,48V31h33v17
	H63z M111,63h33v17h-33V63z M111,48V31h33v17H111z M15.5,31H48v17H15V31.5C15,31.224,15.224,31,15.5,31z M15,79.5V63h33v17H15.5
	C15.224,80,15,79.776,15,79.5z M192,79.5c0,0.276-0.224,0.5-0.5,0.5H159V63h33V79.5z M192,415.5V432h-33v-17h32.5
	C191.776,415,192,415.224,192,415.5z M111,432v-17h33v17H111z M144,447v17h-33v-17H144z M63.5,415H96v17H63v-16.5
	C63,415.224,63.224,415,63.5,415z M63,463.5V447h33v17H63.5C63.224,464,63,463.776,63,463.5z M192,463.5c0,0.276-0.224,0.5-0.5,0.5
	H159v-17h33V463.5z M319,463.5V447h33v17h-32.5C319.224,464,319,463.776,319,463.5z M400,447v17h-33v-17H400z M367,432v-17h33v17
	H367z M447.5,464H415v-17h33v16.5C448,463.776,447.776,464,447.5,464z M448,415.5V432h-33v-17h32.5
	C447.776,415,448,415.224,448,415.5z M319,415.5c0-0.276,0.224-0.5,0.5-0.5H352v17h-33V415.5z M239.5,15h32
	c4.687,0,8.5,3.813,8.5,8.5V32h-49v-8.5C231,18.813,234.813,15,239.5,15z M224.909,215c3.374,13.759,15.806,24,30.591,24
	s27.216-10.241,30.591-24H304v49h-97v-49H224.909z M239,207.5c0-9.098,7.402-16.5,16.5-16.5s16.5,7.402,16.5,16.5
	s-7.402,16.5-16.5,16.5S239,216.598,239,207.5z M266.095,335l11,33h-43.188l11-33H266.095z M280,495.5c0,0.276-0.224,0.5-0.5,0.5
	H263v-88.5c0-4.142-3.358-7.5-7.5-7.5s-7.5,3.358-7.5,7.5V496h-16.5c-0.276,0-0.5-0.224-0.5-0.5V382.975
	c0.166,0.011,0.331,0.025,0.5,0.025h48c0.169,0,0.334-0.014,0.5-0.025V495.5z M264,320h-17v-9h17V320z M213.356,296l-4.25-17h92.787
	l-4.25,17H213.356z M284.538,151.146l19.316,19.314c0.094,0.094,0.146,0.22,0.146,0.354V200h-17.909
	c-3.374-13.759-15.806-24-30.591-24s-27.216,10.241-30.591,24H207v-29.186c0-0.132,0.054-0.261,0.146-0.354l19.315-19.314
	c0.093-0.093,0.221-0.146,0.353-0.146h57.369C284.318,151,284.444,151.052,284.538,151.146z M264,119.5V136h-17v-17h17.025
	C264.014,119.166,264,119.331,264,119.5z M280,104h-49V47h49V104z M496,31.5V48h-33V31h32.5C495.776,31,496,31.224,496,31.5z
	 M400,63v17h-33V63H400z M367,48V31h33v17H367z M415,63h33v17h-33V63z M415,48V31h33v17H415z M319,31.5c0-0.276,0.224-0.5,0.5-0.5
	H352v17h-33V31.5z M319,79.5V63h33v17h-32.5C319.224,80,319,79.776,319,79.5z M495.5,80H463V63h33v16.5
	C496,79.776,495.776,80,495.5,80z"/>
<g>
</g>
<g>
</g>
<g>
</g>
<g>
</g>
<g>
</g>
<g>
</g>
<g>
</g>
<g>
</g>
<g>
</g>
<g>
</g>
<g>
</g>
<g>
</g>
<g>
</g>
<g>
</g>
<g>
</g>
</svg>
